Patient4_TMGait_0pt7_02_right_50_EMG.mot
version=1
nRows=23
nColumns=33
inDegrees=no
endheader
time	1LAddLong	2LGlutMax	3LGlutMed	4LIliopsoas	5LSemiMemb	6LBicFemLong	7LRecFem	8LVastMed	9LVastLat	10LGasMed	11LTibAnt	12lTibPost	13LPeroneusLong	14LSol	15LExtDigLong	16LFlexDigLong	17RAddLong	18RGlutMax	19RGlutMed	20RIliopsoas	21RSemiMemb	22RBicFemLong	23RRecFem	24RVastMed	25RVastLat	26RGasMed	27RTibAnt	28RTibPost	29RPeroneusLong	30RSol	31RExtDigLong	32RFlexDigLong
57.5	-0.007477	0.70252	-0.033417	0.020447	0.11353	0.13367	0.06424	0.002289	0.072632	0.006714	0.24658	0.022888	0.051422	-0.054016	0.28702	0.006714	0.003815	0.2446	0.25681	0.050812	0.11169	0.009155	-0.42694	0.042267	-0.014954	-0.003357	0.13733	-0.001984	-0.091858	0.1297	-0.003204	-0.018921
57.501	-0.016937	0.69122	0.018921	0.008087	0.03891	0.27756	0.017395	-0.001526	-0.019073	-0.012512	-0.13947	0.024261	0.13763	0.005798	0.42068	0.013885	-0.016022	0.1976	0.18173	0.06073	0.11948	0.00824	-0.50766	-0.028229	-0.02121	-0.014648	0.10346	-0.002136	0.019836	0.000458	0.002747	-0.019226
57.502	-0.074005	0.63797	-0.035095	0.015411	-0.068359	0.37842	0.034332	-0.004578	-0.12741	-0.046387	-0.30868	0.024567	0.24414	0.081024	0.54871	-0.000153	-0.014191	0.17853	0.26062	0.001831	0.11093	-0.021515	-0.63492	-0.037384	0.04776	-0.020599	0.10239	-0.002136	0.057983	-0.016479	0.003357	-0.014801
57.503	0.04425	0.69534	-0.084381	0.02655	-0.12772	0.36819	0.035095	-0.007477	0.005646	-0.048065	-0.15091	0.016479	0.23926	0.13016	0.003357	0.011444	-0.01297	0.13153	0.03006	-0.039215	0.10101	0.009155	-0.70801	-0.020752	0.065918	-0.021057	0.089264	-0.005188	0.089569	-0.031433	0.00351	-0.013733
57.504	-0.025787	0.63751	-0.099335	0.010834	-0.13199	0.27435	-0.049744	-0.003052	0.19486	-0.054474	-0.12589	0.01358	0.13672	0.12085	-0.086823	0.022888	0.008392	0.16968	0.19318	-0.067596	0.073395	-0.00473	-0.49667	-0.020447	0.057831	-0.014343	0.089264	-0.005646	0.031433	-0.12894	0.003204	-0.009003
57.505	0.066528	0.64484	-0.13855	0.007324	-0.032654	0.078125	-0.11978	-0.025482	0.23789	-0.053864	-0.09613	0.009766	0.085449	0.065765	-0.10071	0.005493	0.007782	0.13763	0.05127	-0.071716	0.073547	-0.015564	-0.47821	-0.098724	-0.001831	-0.005341	0.087738	-0.003357	-0.1355	-0.2179	0.004425	-0.002441
57.506	0.059357	0.70801	-0.12054	0.004883	0.092468	-0.23697	-0.043182	-0.038757	0.27206	-0.054932	-0.067444	0.01236	0.10681	0.034485	-0.1622	-0.01236	0.011597	0.14999	0.14206	-0.036621	0.064697	-0.024414	-0.58258	-0.063477	-0.025635	-0.001831	0.11627	-0.000153	-0.12192	-0.1799	0.004883	-0.012817
57.507	0.044861	0.69275	-0.13718	0.007019	0.14389	-0.52033	-0.014191	-0.036011	0.26718	-0.031891	0.035095	0.004425	-0.013428	0.042725	0.010376	-0.010681	0.003662	0.13138	0.30563	0.063019	0.093384	-0.042419	-0.72586	-0.021515	-0.057526	-0.002289	0.10086	0.000916	-0.19867	-0.046234	0.007477	-0.014496
57.508	0.034485	0.6424	-0.10666	0.02655	0.089874	-0.29816	-0.014801	-0.021667	0.2095	-0.014038	0.041199	0.002289	-0.10483	0.01709	-0.33722	-0.009918	0.01358	0.10941	0.33981	0.1944	0.089417	-0.06485	-0.56854	-0.007629	0.061188	0.001984	0.070343	-0.005341	-0.73944	-0.03418	0.000305	-0.011139
57.509	0.037231	0.69809	-0.096436	0.006866	0.060425	-0.09079	-0.014496	-0.025635	0.16419	0.003357	0.015717	0.001526	-0.15595	-0.076294	-0.49042	-0.020752	0.010681	0.053558	0.18509	0.15289	0.11154	-0.083008	-0.52368	0.023499	0.093536	0.005493	0.034485	-0.001068	-0.99182	-0.18677	0.001526	-0.017548
57.51	0.030823	0.64743	-0.092163	-0.002136	0.075836	-0.058136	0.009918	-0.032349	0.15839	0.002747	-0.017242	-0.004425	-0.034943	-0.090027	-0.39078	-0.020447	0.006409	0.079498	0.14496	0.069427	0.11658	-0.080109	-0.55878	0.037842	0.023651	0.007172	0.019226	0.000153	-0.97611	-0.19226	0.000153	-0.019989
57.511	0.03006	0.64102	0.18249	-0.006714	0.11322	0.010529	0.002289	-0.033875	-0.011597	-0.00824	-0.044556	-0.002594	0.07843	-0.10178	-0.15228	-0.009766	0.008087	0.051727	0.23285	-0.037384	0.1149	-0.043182	-0.54627	0.034332	-0.006561	0.001831	0.079651	-0.005341	-0.64484	-0.17639	-0.001221	-0.02243
57.512	0.010376	0.63995	0.097351	-0.014801	0.086212	0.15808	0.001678	-0.036774	-0.14572	0.001831	-0.033569	-0.002594	0.06897	-0.10269	0.004883	-0.008392	0.008545	0.005035	0.11841	-0.08194	0.11749	-0.039673	-0.55771	0.068054	0.012512	0.00885	0.094299	-0.005188	-1.1232	-0.094604	0.000763	-0.018311
57.513	-0.005493	0.6926	0.096588	0.0354	-0.019379	0.33112	-0.02655	-0.023651	-0.12772	-0.029297	-0.012665	-0.007782	-0.060883	-0.071869	0.09552	0.001221	0.006866	-0.05661	0.091095	-0.092926	0.11887	-0.016327	-0.59448	0.071869	0.020142	0.003204	0.033417	-0.005188	-0.48752	-0.087891	-0.001831	-0.014954
57.514	-0.027161	0.68558	0.11169	0.068359	-0.092316	0.43625	-0.009766	-0.019836	-0.2153	-0.004883	-0.003052	-0.00412	0.11246	-0.10346	0.09903	-0.014191	0.005341	-0.030823	0.10101	-0.12039	0.11963	-0.035553	-0.6366	0.04776	0.028839	0.006561	-0.022278	-0.00473	1.1534	-0.15076	0.001678	-0.009155
57.515	-0.044861	0.63858	0.15457	0.02182	-0.085602	0.35141	0.052795	-0.011444	-0.29404	-0.00824	0.010681	-0.005798	0.09964	-0.069733	0.1474	-0.011444	0.00412	-0.10056	0.049896	-0.16266	0.1297	-0.055847	-0.59479	0.048065	0.024109	-0.000305	-0.065155	-0.005646	1.7778	-0.10864	0.002136	-0.010681
57.516	-0.046539	0.73303	0.15839	0.020905	-0.019989	0.30045	0.007172	-0.010986	-0.36285	0.000763	0.005798	-0.003815	0.045624	-0.038757	0.14053	-0.014191	0.009155	-0.12894	0.011749	-0.13641	0.14862	-0.054779	-0.58624	0.024872	0.0383	0.002136	-0.050507	-0.004425	0.9082	-0.1384	0.001221	-0.008698
57.517	-0.06424	0.74188	0.11932	0.014954	-0.031891	0.1831	0.005493	-0.010223	-0.50369	0.006561	0.005951	-0.010376	0.068207	-0.029602	0.13062	-0.016174	0.020752	-0.23025	-0.13565	-0.011597	0.1741	-0.043488	-0.63034	0.015106	0.012665	0.002136	0.014191	-0.009613	0.45044	-0.11826	0.001831	-0.004578
57.518	-0.061646	0.79407	0.12894	0.022278	-0.024719	0.21927	0.068207	-0.005646	-0.51514	0.008698	0.010376	-0.010223	0.063934	0.003204	0.11978	-0.01358	0.02594	-0.31525	-0.16525	0.12833	0.14755	-0.059357	-0.56213	0.022736	0.023193	0.000916	0.062561	-0.006866	0.12344	0.009308	0.000763	-0.005341
57.519	-0.061798	0.84091	0.1033	0.011749	-0.069733	0.21271	0.11444	-0.022125	-0.45807	0.00473	0.022583	-0.013885	0.027313	0.030975	0.10056	-0.011597	0.023193	-0.22766	-0.13412	0.13809	0.14252	-0.14679	-0.578	0.044556	0.029144	0.001831	0.051727	0.00473	-0.11963	-0.002289	0.000458	0.001678
57.52	-0.041199	0.85556	0.044556	0.011444	-0.08194	0.13565	0.094757	-0.039825	-0.38986	-0.010071	0.041656	-0.00473	0.023651	0.000763	0.074921	-0.019226	0.013275	-0.2829	-0.086212	0.068207	0.13519	-0.30014	-0.63339	0.095215	0.058289	0.000763	0.029449	0.011292	0.085449	-0.036163	-0.00061	-0.00885
57.521	-0.011139	0.811	0.056458	0.0177	-0.04776	-0.058441	-0.014954	-0.056	-0.25391	0.002441	0.071106	-0.011749	0.011444	-0.005341	0.068207	-0.014496	-0.00412	-0.1947	-0.15717	0.012817	0.097198	-0.27817	-0.64377	0.098877	0.049133	0.004578	0.004272	0.008392	0.10696	-0.23804	0.004425	-0.011902
57.522	0.017853	0.7431	0.14282	0.014648	0.084839	-0.11932	-0.052338	-0.051727	-0.14954	0.019073	-0.020142	-0.009766	0.016785	0.014954	0.059357	-0.020447	-0.010681	-0.21774	-0.20523	-0.10315	0.082092	-0.14084	-0.58319	0.093079	0.077667	0.016022	-0.029449	-0.038605	0.052795	-0.3952	0.000305	-0.016327
